<?xml version="1.0" standalone="yes"?>
<svg xmlns="http://www.w3.org/2000/svg" width="100" height="54">
<path style="fill:#010101; stroke:none;" d="M0 0L0 54L100 54L100 0L0 0z"/>
<path style="fill:#ffffff; stroke:none;" d="M10 26L37 26L37 24L13 24C23.597 11.0737 35.336 4.92665 52 11L52 13C42.154 17.6233 39.9994 25.0147 40 35C40.0001 37.3456 38.916 44.4001 42.2284 45.0934C47.0748 46.1077 55.9339 34.0661 59 31L59 37L62 32L64 32L63 37L66 35L67 35L69 37L69 33L70 33L70 37L79 35L80 35C81.9468 37.2309 84.0532 37.2309 86 35L87 35L90 37L90 30L81 32C76.6182 28.9848 74.9976 31.6927 72 35L73 30L71 32L70 32C61.4957 22.2679 47.4777 37.5223 42 43C42 38.0528 40.9522 31.6859 42.7423 27C50.3179 7.16899 71.0686 9 88 9L73 22.9722L46 24L46 26C61.3023 26 88.3262 29.2034 90 7C80.5437 7 62.4429 3.52744 55 10C41.062 0.800323 12.8141 7.76289 10 26z"/>
<path style="fill:#010101; stroke:none;" d="M83 31L83 36L84 36L83 31M66 32L67 33L66 32M76 32L76 36L77 36L76 32z"/>
<path style="fill:#ffffff; stroke:none;" d="M60 44L60 45L56 45L56 47C61.5049 46.5715 61.7111 43.9445 62 39C58.2572 39.2731 54.7875 42.883 60 44M63 39L63 47L66 41L68 41C68.2784 44.5753 69.313 47.5145 73 45C76.2873 47.262 78.6972 46.9309 80 43L81 43L81 47L83 47L83 42L84 42L84 47C90.8055 45.9147 90.1745 37.471 85 41L81 41L75 39L75 44L74 44L74 39L73 39L71 45L70 45L71 39L63 39z"/>
<path style="fill:#010101; stroke:none;" d="M59.6667 41.3333L60.3333 41.6667L59.6667 41.3333M77 41L77 45L78 45L77 41M87 41L86 45L87 45L87 41z"/>
</svg>
